<?xml version="1.0" encoding="UTF-8" standalone="no"?>
<!--part of the matt icon theme by sixsixfive released under CC0 (https://creativecommons.org/publicdomain/zero/1.0/) on openclipart-->

<svg
   xmlns:dc="http://purl.org/dc/elements/1.1/"
   xmlns:cc="http://creativecommons.org/ns#"
   xmlns:rdf="http://www.w3.org/1999/02/22-rdf-syntax-ns#"
   xmlns:svg="http://www.w3.org/2000/svg"
   xmlns="http://www.w3.org/2000/svg"
   xmlns:sodipodi="http://sodipodi.sourceforge.net/DTD/sodipodi-0.dtd"
   xmlns:inkscape="http://www.inkscape.org/namespaces/inkscape"
   viewBox="0 0 16 16"
   version="1.1"
   id="svg53"
   sodipodi:docname="folder.svg"
   width="16"
   height="16"
   inkscape:version="0.92.2 5c3e80d, 2017-08-06">
  <metadata
     id="metadata57">
    <rdf:RDF>
      <cc:Work
         rdf:about="">
        <dc:format>image/svg+xml</dc:format>
        <dc:type
           rdf:resource="http://purl.org/dc/dcmitype/StillImage" />
        <dc:title></dc:title>
      </cc:Work>
    </rdf:RDF>
  </metadata>
  <sodipodi:namedview
     pagecolor="#ffffff"
     bordercolor="#666666"
     borderopacity="1"
     objecttolerance="10"
     gridtolerance="10"
     guidetolerance="10"
     inkscape:pageopacity="0"
     inkscape:pageshadow="2"
     inkscape:window-width="1394"
     inkscape:window-height="1200"
     id="namedview55"
     showgrid="false"
     inkscape:zoom="29.5"
     inkscape:cx="9.2214404"
     inkscape:cy="11.257305"
     inkscape:window-x="69"
     inkscape:window-y="84"
     inkscape:window-maximized="0"
     inkscape:current-layer="svg53" />
  <defs
     id="0" />
  <path
     d="m 1.3215879,1.3296466 c -0.43747045,0 -0.7988813,0.354321 -0.7988813,0.783207 0,0 -0.008395,7.9700914 -0.008395,11.5608834 1.1e-7,0.428886 0.36141045,0.783207 0.7988813,0.783207 H 14.716647 c 0.437472,0 0.802917,-0.351417 0.802917,-0.783207 V 4.0418818 c 0,-0.431788 -0.365445,-0.783206 -0.802917,-0.783206 H 5.3107971 V 2.1128536 c 0,-0.428887 -0.3614114,-0.783207 -0.798882,-0.783207 z"
     id="2"
     style="fill:#d7d7d7;fill-opacity:1;stroke:#000000;stroke-width:0.97839409;stroke-miterlimit:4;stroke-dasharray:none;stroke-opacity:1"
     inkscape:connector-curvature="0"
     sodipodi:nodetypes="sccssssscsss" />
  <path
     d="m 14.977245,5.2494 c 0,0 -13.0658749,0.027854 -13.7599662,0.059092 C 0.79221715,5.391163 0.51097085,5.6939261 0.50171931,5.9827723 l 0.0588839,7.8237387 v 0.0139 h 0.003766 c 0.008785,0.357173 0.32957518,0.646476 0.71555929,0.646476 H 14.755043 c 0.388782,0 0.711388,-0.295432 0.715562,-0.653428 2.6e-5,-0.0024 0,-0.0046 0,-0.0069 l 0.0054,-7.889775 C 15.39635,5.545976 15.075581,5.2584604 14.760416,5.2494389 Z"
     id="6"
     style="fill:#b8b8b8;fill-opacity:1;stroke:#000000;stroke-width:0.95148492;stroke-miterlimit:4;stroke-dasharray:none;stroke-opacity:1"
     inkscape:connector-curvature="0"
     sodipodi:nodetypes="ccccccssccccc" />
</svg>
